<svg width="82" height="20" viewBox="0 0 82 20" fill="none" xmlns="http://www.w3.org/2000/svg">
<path d="M74.6813 19.1875C70.5182 19.1875 67.7097 16.3168 67.6973 12.4271C67.7097 8.46285 70.5555 5.66675 74.4328 5.66675C78.31 5.66675 80.9819 8.46285 80.9694 12.4271C80.9819 12.8124 80.9446 13.1976 80.8949 13.5704H71.2763C71.5621 15.2356 72.9167 16.3044 74.6813 16.3044C76.011 16.3044 76.9555 15.6954 77.4401 14.6888L80.5221 15.857C79.4782 17.8951 77.4526 19.1875 74.6813 19.1875ZM71.326 10.8861H77.3656C77.1916 9.55644 76.0732 8.54984 74.4328 8.54984C72.8794 8.54984 71.6988 9.45702 71.326 10.8861Z" fill="black"/>
<path d="M53.3622 18.8395V0.845032H57.0406V8.50015H57.1649L63.3287 0.845032H67.9019L60.8433 9.3949L68.1007 18.8395H63.4778L57.1649 10.4885H57.0406V18.8395H53.3622Z" fill="black"/>
<path d="M32.2111 19.1875C27.0166 19.1875 23.0275 15.1238 23.0399 9.84228C23.0275 4.56074 27.0166 0.49707 32.2111 0.49707C35.5292 0.49707 38.3377 2.16231 39.8911 4.7223L36.6849 6.43724C35.7404 4.93356 34.1249 3.97667 32.2111 3.97667C29.1044 3.97667 26.7308 6.52423 26.7432 9.84228C26.7308 13.1603 29.1044 15.7079 32.2111 15.7079C34.1249 15.7079 35.7404 14.751 36.6849 13.2473L39.8911 14.9623C38.3377 17.5222 35.5292 19.1875 32.2111 19.1875Z" fill="black"/>
<path d="M17.05 18.8395V6.01473H20.5794V18.8395H17.05ZM18.8147 4.12581C17.6093 4.12581 16.7021 3.24348 16.7269 2.0629C16.7021 0.882327 17.6093 0 18.8147 0C19.9953 0 20.9025 0.882327 20.9273 2.0629C20.9025 3.24348 19.9953 4.12581 18.8147 4.12581Z" fill="black"/>
<path d="M0 4.29978V0.845032H14.4155V4.29978H9.07181V18.8395H5.39338V4.29978H0Z" fill="black"/>
<path d="M43.0476 19.1875C37.8531 19.1875 33.864 15.1238 33.8764 9.84228C33.864 4.56074 37.8531 0.49707 43.0476 0.49707C46.3657 0.49707 49.1742 2.16231 50.7276 4.7223L47.5214 6.43724C46.5769 4.93356 44.9614 3.97667 43.0476 3.97667C39.9408 3.97667 37.5673 6.52423 37.5797 9.84228C37.5673 13.1603 39.9408 15.7079 43.0476 15.7079C44.9614 15.7079 46.5769 14.751 47.5214 13.2473L50.7276 14.9623C49.1742 17.5222 46.3657 19.1875 43.0476 19.1875Z" fill="black"/>
</svg>
